<mxfile host="app.diagrams.net" agent="Mozilla/5.0 (Windows NT 10.0; Win64; x64) AppleWebKit/537.36 (KHTML, like Gecko) Chrome/134.0.0.0 Safari/537.36 Edg/134.0.0.0" version="26.1.2">
  <diagram name="Page-1" id="9mJDqoDazIPGj6i9PD_d">
    <mxGraphModel dx="1426" dy="755" grid="1" gridSize="10" guides="1" tooltips="1" connect="1" arrows="1" fold="1" page="1" pageScale="1" pageWidth="827" pageHeight="1169" math="0" shadow="0">
      <root>
        <mxCell id="0" />
        <mxCell id="1" parent="0" />
        <mxCell id="qmFXpsY-uYhWsR0_D-66-1" value="" style="rounded=0;whiteSpace=wrap;html=1;fillColor=#666666;" vertex="1" parent="1">
          <mxGeometry x="40" y="120" width="1200" height="700" as="geometry" />
        </mxCell>
        <mxCell id="qmFXpsY-uYhWsR0_D-66-2" value="" style="rounded=1;whiteSpace=wrap;html=1;fillColor=#f5f5f5;fontColor=#333333;strokeColor=#666666;glass=0;shadow=0;" vertex="1" parent="1">
          <mxGeometry x="80" y="160" width="1120" height="330" as="geometry" />
        </mxCell>
        <mxCell id="qmFXpsY-uYhWsR0_D-66-3" value="" style="rounded=1;whiteSpace=wrap;html=1;fillColor=#f5f5f5;fontColor=#333333;strokeColor=#666666;" vertex="1" parent="1">
          <mxGeometry x="80" y="540" width="1120" height="240" as="geometry" />
        </mxCell>
        <mxCell id="qmFXpsY-uYhWsR0_D-66-4" value="&lt;font data-font-src=&quot;https://fonts.googleapis.com/css?family=Andika&quot; face=&quot;Andika&quot;&gt;Waiting Area&lt;/font&gt;" style="rounded=0;whiteSpace=wrap;html=1;fontSize=40;fontStyle=0;fontFamily=Quicksand;fontSource=https%3A%2F%2Ffonts.googleapis.com%2Fcss%3Ffamily%3DQuicksand;fillColor=#dae8fc;strokeColor=#6c8ebf;shadow=1;" vertex="1" parent="1">
          <mxGeometry x="415" y="130" width="450" height="60" as="geometry" />
        </mxCell>
        <mxCell id="qmFXpsY-uYhWsR0_D-66-5" value="&lt;span style=&quot;font-family: Andika;&quot;&gt;Ward&lt;/span&gt;" style="rounded=0;whiteSpace=wrap;html=1;fontSize=40;fontStyle=0;fontFamily=Quicksand;fontSource=https%3A%2F%2Ffonts.googleapis.com%2Fcss%3Ffamily%3DQuicksand;fillColor=#d5e8d4;strokeColor=#82b366;shadow=1;" vertex="1" parent="1">
          <mxGeometry x="415" y="510" width="450" height="60" as="geometry" />
        </mxCell>
      </root>
    </mxGraphModel>
  </diagram>
</mxfile>
